<?xml version="1.0" standalone="no"?>
<!DOCTYPE svg PUBLIC "-//W3C//DTD SVG 20010904//EN"
 "http://www.w3.org/TR/2001/REC-SVG-20010904/DTD/svg10.dtd">
<svg version="1.0" xmlns="http://www.w3.org/2000/svg"
 width="500.000000pt" height="500.000000pt" viewBox="0 0 500.000000 500.000000"
 preserveAspectRatio="xMidYMid meet">

<g transform="translate(0.000000,500.000000) scale(0.100000,-0.100000)"
fill="#000000" stroke="none">
<path d="M1640 4992 c0 -5 7 -9 15 -9 8 0 15 4 15 9 0 4 -7 8 -15 8 -8 0 -15
-4 -15 -8z"/>
<path d="M1986 4988 c4 -7 21 -34 38 -59 17 -26 36 -55 43 -65 21 -34 15 27
-8 85 -19 45 -25 51 -51 51 -21 0 -27 -4 -22 -12z"/>
<path d="M2744 4933 c-1 -38 -4 -86 -7 -108 -3 -22 -5 -50 -6 -62 -1 -29 -19
-30 -23 -1 -4 31 -26 34 -37 5 -7 -19 -15 -24 -30 -20 -12 3 -21 1 -21 -6 0
-6 -8 -11 -19 -11 -26 0 -37 -88 -13 -106 14 -10 15 -15 5 -25 -18 -18 -16
-29 5 -29 13 0 14 -2 3 -9 -8 -5 -10 -14 -5 -22 12 -19 15 -69 5 -69 -5 0 -12
6 -14 13 -4 9 -6 9 -6 -1 -1 -7 -5 -10 -11 -7 -9 6 -14 -10 -13 -42 1 -7 -3
-13 -8 -13 -5 0 -9 16 -9 35 0 19 -4 35 -10 35 -5 0 -6 7 -3 17 5 12 3 14 -7
8 -10 -6 -12 -4 -7 9 10 25 -2 39 -19 22 -8 -8 -11 -22 -7 -32 4 -12 3 -15 -5
-10 -7 4 -12 2 -12 -4 0 -12 -24 -40 -34 -40 -3 0 -6 11 -6 25 0 16 -6 25 -15
25 -8 0 -15 -4 -15 -10 0 -5 -7 -10 -15 -10 -14 0 -16 6 -19 55 -1 11 -5 26
-10 33 -4 7 -5 16 -2 19 3 4 6 2 6 -4 0 -13 28 -25 40 -18 5 3 5 18 0 34 -5
18 -4 33 2 39 7 7 5 18 -6 33 -9 13 -17 44 -18 69 -1 35 -2 38 -5 13 -4 -29
-28 -51 -41 -38 -3 3 -6 21 -6 40 0 61 -12 38 -25 -47 -10 -69 -25 -139 -47
-215 -6 -24 -22 -13 -30 20 -7 31 -8 31 -14 7 -4 -14 -3 -29 2 -34 4 -6 8 -16
8 -24 0 -12 -3 -12 -15 -2 -26 22 -16 -5 11 -31 30 -28 70 -84 106 -149 35
-64 39 -88 19 -103 -15 -10 -17 -28 -15 -122 2 -104 -10 -175 -28 -175 -5 0
-17 13 -26 30 -9 16 -22 30 -28 30 -6 0 -17 11 -24 25 -12 23 -15 24 -36 10
-22 -14 -23 -14 -28 38 -4 28 -7 74 -9 101 -1 29 -7 51 -14 54 -10 3 -13 -15
-14 -65 0 -37 -4 -77 -9 -88 -5 -11 -9 -15 -9 -10 -1 6 -6 3 -11 -5 -8 -13
-10 -12 -10 3 0 9 -4 17 -10 17 -5 0 -10 -8 -10 -17 0 -31 -44 47 -94 167 -50
120 -81 164 -123 175 -57 14 -117 51 -195 121 -46 41 -87 74 -92 74 -5 0 -27
19 -50 43 -43 44 -146 131 -146 124 0 -3 39 -42 86 -88 84 -81 144 -153 144
-171 0 -5 -15 5 -32 21 -84 76 -98 84 -98 58 0 -8 28 -37 63 -65 34 -29 70
-60 80 -69 17 -17 18 -17 11 2 -5 15 -2 13 14 -7 12 -14 22 -31 22 -37 0 -6
11 -17 25 -23 14 -6 25 -16 25 -21 0 -5 -7 -4 -16 4 -12 10 -17 10 -23 0 -4
-6 -14 -11 -21 -9 -24 6 -21 -19 6 -45 27 -27 44 -28 44 -1 0 8 -8 14 -17 14
-13 1 -10 5 10 16 20 11 32 12 47 4 11 -6 20 -15 20 -20 0 -4 21 -32 48 -62
58 -65 102 -123 102 -136 0 -10 34 -34 135 -97 145 -90 325 -271 325 -326 0
-19 -9 -30 -41 -47 -38 -20 -89 -22 -89 -3 0 4 -21 18 -47 30 -27 13 -64 30
-83 39 -19 10 -55 32 -81 50 -25 17 -54 32 -64 32 -10 0 -65 48 -122 108
l-104 107 33 -59 c18 -32 54 -80 80 -105 27 -25 48 -49 48 -54 0 -4 -25 -4
-55 -1 -38 5 -55 3 -55 -5 0 -10 38 -15 87 -11 18 1 21 -2 16 -16 -5 -14 -3
-16 11 -11 20 8 133 -35 274 -105 103 -51 103 -51 97 -82 -4 -17 -13 -36 -21
-42 -16 -12 -19 -34 -5 -34 5 0 14 7 21 15 11 14 34 22 113 39 15 4 27 11 27
16 0 11 23 39 59 73 12 12 40 39 60 59 33 35 39 37 69 29 19 -6 34 -6 37 0 8
11 -20 23 -35 14 -14 -8 -13 8 2 23 8 8 17 8 32 1 20 -9 20 -9 3 4 -17 14 -17
16 5 37 13 12 39 31 58 43 19 11 47 31 63 43 15 13 34 21 42 18 8 -4 15 -1 15
5 0 6 6 8 14 5 8 -3 19 3 26 15 15 29 34 27 26 -2 -11 -45 -36 -241 -36 -283
0 -64 -13 -87 -64 -112 -25 -13 -46 -26 -46 -29 0 -3 21 -3 48 1 26 4 75 9
109 11 34 2 70 8 80 13 10 5 47 10 83 12 36 1 74 2 85 3 50 3 145 -16 145 -29
0 -8 -4 -14 -10 -14 -5 0 -10 -5 -10 -11 0 -6 10 -9 23 -7 18 2 22 9 22 38 0
39 8 36 -122 46 l-81 6 66 81 c108 129 246 257 355 329 56 37 120 81 142 96
22 16 57 35 78 42 36 14 45 24 30 33 -24 15 -291 -102 -329 -144 -12 -13 0
-10 40 12 95 52 82 27 -31 -58 -59 -45 -121 -92 -138 -105 -59 -45 -208 -194
-236 -235 -37 -53 -56 -64 -103 -56 -49 8 -66 44 -42 86 9 16 16 35 16 42 0 7
5 15 11 17 6 2 9 17 7 33 -3 29 -3 29 -28 -19 -20 -40 -26 -45 -28 -28 -4 27
16 92 28 92 5 0 9 8 9 18 0 69 9 123 24 140 9 10 17 27 17 38 0 10 19 33 43
51 37 28 68 46 180 104 18 10 35 15 39 13 7 -5 26 8 92 67 75 65 240 185 390
283 82 53 146 99 143 102 -3 3 -93 -37 -199 -89 -274 -134 -431 -243 -493
-341 -44 -70 -58 -60 -30 24 8 25 26 83 41 130 14 47 45 126 69 175 23 50 45
104 48 122 6 30 166 288 174 280 2 -2 -1 -16 -6 -31 -6 -14 -9 -26 -6 -26 8 0
28 43 29 62 1 10 5 18 10 17 9 -1 56 86 56 103 0 14 -133 5 -138 -10 -2 -8 2
-10 15 -5 16 6 16 5 4 -10 -11 -14 -11 -18 4 -23 11 -5 23 0 34 13 17 21 51
38 51 25 0 -4 -23 -29 -50 -56 -28 -27 -50 -45 -50 -40 0 13 -53 12 -62 -1 -5
-6 -8 -4 -8 4 0 8 8 23 18 34 16 19 16 20 -3 9 -11 -6 -27 -20 -35 -32 -8 -11
-36 -43 -62 -70 -30 -31 -45 -56 -42 -65 10 -24 40 -17 67 15 14 17 28 30 30
30 3 0 22 16 43 35 21 19 42 35 46 35 18 0 5 -23 -53 -87 -82 -92 -147 -194
-160 -250 -12 -56 -45 -144 -103 -273 -9 -19 -26 -49 -39 -66 -12 -18 -27 -40
-33 -50 -22 -37 -25 -6 -4 55 11 33 20 78 20 100 0 22 4 51 10 65 5 14 8 26 6
26 -6 0 -108 -153 -111 -165 -3 -18 -29 -70 -38 -76 -4 -3 -7 -10 -6 -15 4
-21 -2 -35 -11 -29 -6 4 -7 -1 -3 -11 5 -13 2 -16 -8 -12 -10 4 -15 -1 -15
-12 0 -10 4 -16 8 -14 4 3 8 -5 8 -18 0 -16 -3 -19 -9 -10 -6 10 -10 5 -14
-17 -4 -17 -7 -33 -7 -36 0 -19 -33 -64 -47 -64 -39 -2 -68 -6 -78 -12 -5 -4
-29 -10 -52 -14 -23 -3 -44 -13 -47 -22 -4 -9 -14 -13 -26 -10 -11 3 -23 1
-26 -4 -8 -14 -24 -10 -18 5 3 7 -2 20 -10 29 -9 9 -16 21 -16 27 0 6 -5 8
-10 5 -6 -4 -8 -10 -5 -15 3 -5 -8 -23 -25 -41 -16 -19 -30 -39 -30 -47 0 -8
-5 -10 -12 -5 -7 4 -22 6 -33 5 -20 -3 -65 31 -65 48 0 20 54 145 84 194 80
132 146 217 260 334 120 123 176 169 187 151 7 -11 9 -11 9 3 0 10 23 29 61
49 34 18 63 40 66 48 18 63 52 135 88 186 23 33 54 84 68 113 l26 52 -141 0
c-132 0 -142 -1 -159 -22 -18 -19 -25 -14 -20 15 0 4 -34 7 -76 7 l-78 0 -1
-67z m-60 -268 c-4 -8 -8 -15 -10 -15 -2 0 -4 7 -4 15 0 8 4 15 10 15 5 0 7
-7 4 -15z m-54 -15 c0 -5 -4 -10 -10 -10 -5 0 -10 5 -10 10 0 6 5 10 10 10 6
0 10 -4 10 -10z m30 -40 c0 -9 -31 -30 -44 -30 -12 0 -6 28 7 33 20 9 37 8 37
-3z m629 -47 c-6 -15 -25 -59 -43 -98 -33 -71 -74 -176 -96 -250 -19 -62 -69
-165 -80 -165 -14 0 -3 41 30 120 15 36 31 76 35 90 12 42 149 330 157 330 4
0 3 -12 -3 -27z"/>
<path d="M3256 4985 c-5 -15 -135 -196 -147 -205 -14 -11 -49 -90 -49 -110 0
-35 22 -18 58 46 19 32 49 84 68 116 55 91 94 168 85 168 -5 0 -11 -7 -15 -15z"/>
<path d="M3405 4970 c-3 -5 -1 -10 4 -10 6 0 11 5 11 10 0 6 -2 10 -4 10 -3 0
-8 -4 -11 -10z"/>
<path d="M1110 4933 c0 -5 37 -40 81 -79 45 -38 99 -84 120 -103 22 -18 39
-29 39 -25 -1 5 -25 28 -53 51 -29 23 -83 70 -120 103 -37 34 -67 58 -67 53z"/>
<path d="M3421 4924 c0 -11 3 -14 6 -6 3 7 2 16 -1 19 -3 4 -6 -2 -5 -13z"/>
<path d="M1286 4843 c11 -10 26 -27 32 -38 9 -16 11 -16 12 -4 0 16 -22 40
-50 53 -8 4 -6 -1 6 -11z"/>
<path d="M2367 4819 c7 -7 15 -10 18 -7 3 3 -2 9 -12 12 -14 6 -15 5 -6 -5z"/>
<path d="M1157 4748 c15 -13 38 -29 51 -36 22 -12 23 -12 12 8 -6 11 -17 20
-26 20 -8 0 -17 7 -20 15 -4 8 -15 15 -26 15 -17 0 -16 -3 9 -22z"/>
<path d="M1970 4733 c0 -16 6 -35 12 -41 10 -10 10 -15 -1 -21 -19 -12 -10
-41 21 -64 34 -25 61 -17 49 15 -4 13 -17 23 -27 23 -13 0 -18 8 -19 26 0 14
-6 33 -13 41 -9 12 -10 17 -1 20 7 2 6 8 -5 17 -14 12 -16 10 -16 -16z m70
-113 c0 -5 -2 -10 -4 -10 -3 0 -8 5 -11 10 -3 6 -1 10 4 10 6 0 11 -4 11 -10z"/>
<path d="M1940 4730 c0 -5 5 -10 11 -10 5 0 7 5 4 10 -3 6 -8 10 -11 10 -2 0
-4 -4 -4 -10z"/>
<path d="M2080 4530 c0 -19 11 -26 23 -14 8 8 -3 34 -14 34 -5 0 -9 -9 -9 -20z"/>
<path d="M2550 4500 c0 -5 5 -10 10 -10 6 0 10 5 10 10 0 6 -4 10 -10 10 -5 0
-10 -4 -10 -10z"/>
<path d="M2870 4449 c0 -5 5 -7 10 -4 6 3 10 8 10 11 0 2 -4 4 -10 4 -5 0 -10
-5 -10 -11z"/>
<path d="M3877 4145 c-32 -7 -64 -18 -70 -24 -17 -17 17 -13 108 14 87 25 62
32 -38 10z"/>
<path d="M1659 4133 c32 -23 90 -45 118 -44 12 0 27 -8 33 -18 9 -18 12 -18
40 -4 33 16 31 33 -4 33 -20 0 -137 27 -191 45 -16 5 -16 3 4 -12z"/>
<path d="M1897 4025 c-7 -16 8 -29 23 -20 10 6 2 35 -10 35 -4 0 -10 -7 -13
-15z"/>
<path d="M2520 4016 c-6 -8 -18 -12 -26 -9 -8 3 -14 0 -14 -6 0 -6 9 -11 19
-11 11 0 21 -6 24 -12 2 -7 6 2 9 20 5 37 5 37 -12 18z"/>
<path d="M1310 3970 c0 -5 12 -10 28 -9 24 0 25 1 7 9 -27 12 -35 12 -35 0z"/>
<path d="M2432 3893 c-11 -21 -5 -46 9 -37 5 3 9 0 9 -7 0 -8 7 -6 19 5 19 17
19 18 0 37 -23 23 -26 23 -37 2z"/>
<path d="M2971 3794 c0 -11 3 -14 6 -6 3 7 2 16 -1 19 -3 4 -6 -2 -5 -13z"/>
<path d="M3615 3790 c-4 -6 5 -10 19 -10 14 0 26 5 26 10 0 6 -9 10 -19 10
-11 0 -23 -4 -26 -10z"/>
<path d="M3480 3750 c-115 -48 -190 -87 -227 -116 -16 -13 17 0 72 28 55 27
134 64 175 80 70 28 107 49 85 48 -6 -1 -53 -19 -105 -40z"/>
<path d="M1368 3713 c7 -3 16 -2 19 1 4 3 -2 6 -13 5 -11 0 -14 -3 -6 -6z"/>
<path d="M1471 3686 c2 -2 54 -20 114 -41 151 -51 283 -115 333 -164 76 -74
54 -79 -79 -17 -97 46 -124 45 -70 0 17 -14 36 -34 41 -44 9 -17 5 -18 -45
-15 -76 5 -69 -11 9 -19 73 -7 237 -41 281 -58 17 -6 43 -21 59 -32 16 -11 43
-19 58 -18 27 2 128 -36 128 -48 -1 -7 -73 -40 -87 -40 -6 0 -21 -11 -34 -25
-13 -13 -29 -25 -36 -25 -6 0 -19 -10 -28 -22 -13 -20 -17 -21 -25 -8 -5 8
-10 21 -10 28 0 6 -9 12 -20 12 -11 0 -20 6 -20 14 0 7 -11 21 -25 30 -13 9
-22 22 -20 29 3 7 -23 29 -62 52 -84 50 -94 54 -65 22 13 -14 25 -40 26 -60
l3 -34 -42 13 c-32 9 -45 10 -54 1 -9 -9 -14 -9 -19 0 -9 14 -103 19 -152 8
-51 -11 -108 -42 -124 -68 -10 -16 -12 -34 -6 -67 4 -25 8 -38 9 -29 0 9 10
28 21 42 23 28 107 87 126 87 6 0 16 -17 21 -37 9 -35 7 -40 -21 -65 l-31 -27
30 -1 c17 0 36 5 43 12 17 17 37 -5 37 -43 0 -29 -7 -38 -55 -70 -52 -34 -116
-119 -90 -119 6 0 13 7 17 16 3 8 12 13 20 10 8 -3 12 -2 9 3 -3 4 8 21 24 36
l30 29 0 -81 c0 -101 -8 -143 -27 -143 -10 0 -13 -6 -9 -16 7 -19 -9 -42 -39
-55 -11 -5 -33 -18 -50 -29 -69 -45 -68 -45 -61 -16 5 19 3 26 -9 26 -8 0 -15
-8 -15 -19 0 -22 -35 -34 -49 -17 -22 27 -31 239 -12 274 8 15 12 12 25 -20 9
-21 16 -43 16 -51 0 -17 23 -67 31 -67 3 0 6 20 6 44 0 25 6 55 15 68 24 39
30 61 14 55 -10 -4 -21 8 -35 36 l-21 42 0 -47 c0 -54 -17 -65 -27 -17 l-6 30
-17 -38 c-20 -44 -39 -121 -44 -178 -2 -22 -7 -61 -11 -87 -5 -27 -3 -59 3
-77 8 -22 8 -31 0 -31 -7 0 -6 -5 1 -14 10 -12 9 -20 -4 -40 -12 -19 -16 -44
-14 -105 3 -73 1 -81 -21 -99 l-23 -19 22 -71 c22 -68 22 -72 7 -126 -9 -31
-19 -56 -23 -56 -3 0 -3 27 0 61 4 35 1 83 -6 112 l-12 52 -3 -37 c-2 -26 -9
-39 -23 -43 -10 -4 -19 -11 -19 -16 0 -5 -7 -9 -15 -9 -11 0 -15 12 -15 45 0
42 -22 105 -37 105 -3 0 -3 -32 1 -72 6 -63 10 -75 36 -98 17 -15 30 -33 30
-40 0 -11 -3 -11 -12 -2 -7 7 -17 12 -22 12 -6 0 -5 -5 2 -12 7 -7 12 -30 12
-51 0 -22 4 -67 10 -101 5 -33 12 -83 16 -109 3 -28 14 -57 25 -68 10 -10 19
-24 19 -31 0 -23 13 3 20 39 7 36 8 35 7 -13 -1 -36 5 -59 18 -78 36 -50 54
-88 48 -103 -7 -18 -59 58 -68 99 -8 33 -26 38 -19 6 11 -57 13 -98 5 -98 -5
0 -13 24 -17 53 l-8 52 -7 -40 c-4 -22 -3 -45 3 -52 6 -7 5 -14 -2 -18 -15 -9
-118 42 -130 66 -6 10 -15 19 -21 19 -14 0 15 -51 42 -75 12 -11 19 -14 15 -7
-10 17 0 15 32 -5 30 -19 42 -33 41 -48 0 -5 -7 0 -16 13 -8 12 -21 22 -28 22
-6 0 4 -17 24 -38 27 -28 39 -53 49 -97 23 -106 24 -122 13 -143 -9 -17 -5
-30 21 -71 l31 -51 -21 -23 c-23 -24 -29 -47 -13 -47 5 0 12 6 15 13 4 6 4 1
2 -12 -3 -14 0 -31 6 -38 14 -17 6 -25 -16 -17 -9 4 -22 26 -28 50 -7 24 -15
44 -19 44 -14 0 13 -75 38 -108 17 -22 28 -54 33 -90 3 -32 14 -75 24 -97 9
-21 19 -65 23 -97 l6 -58 -36 0 c-20 0 -39 4 -42 10 -3 5 -10 10 -16 10 -22 0
-5 -28 47 -77 40 -38 55 -59 53 -75 -10 -93 35 -209 116 -298 54 -60 74 -86
57 -76 -7 4 -25 5 -40 1 -27 -7 -26 -7 13 -20 22 -7 70 -27 108 -44 50 -23 67
-36 67 -51 0 -20 7 -20 388 -20 342 1 385 2 368 15 -11 8 -28 15 -37 15 -10 0
-21 5 -25 12 -13 20 59 0 78 -22 24 -29 72 -27 86 5 11 23 32 35 32 18 0 -5
22 -8 49 -8 53 0 74 -11 51 -25 -10 -6 114 -10 333 -10 372 0 361 -2 332 50
-20 35 -19 37 16 49 40 14 48 8 55 -40 4 -21 11 -39 17 -39 6 0 7 16 3 43 -4
23 -9 54 -11 68 -4 22 5 34 47 70 39 33 60 62 90 125 21 45 38 90 38 99 0 10
21 40 46 67 37 40 45 54 42 80 -2 17 -9 33 -17 36 -9 3 -11 -2 -6 -17 10 -32
-30 -106 -71 -132 -19 -11 -46 -37 -60 -58 l-25 -36 6 55 c5 43 4 52 -5 40
-11 -13 -11 -13 -7 0 3 9 10 41 17 73 14 72 35 77 25 7 -8 -57 2 -63 55 -35
33 17 35 23 50 144 12 93 8 114 -11 52 -12 -39 -28 -55 -30 -28 -4 41 32 167
48 167 7 0 13 -5 13 -11 0 -5 5 -7 10 -4 14 9 -7 35 -26 35 -17 0 -19 76 -3
117 19 47 28 107 18 125 -8 15 16 171 36 233 4 13 1 11 -8 -5 -8 -14 -23 -60
-33 -102 -18 -81 -27 -94 -38 -56 -9 36 -7 55 7 70 18 18 35 89 43 182 6 74 5
78 -13 68 -14 -8 -18 -23 -18 -68 0 -37 -4 -59 -12 -61 -8 -3 -13 4 -13 16 0
25 -8 26 -30 6 -21 -19 -31 -8 -47 47 -9 32 -8 39 8 54 23 21 24 34 3 34 -13
0 -15 7 -9 37 7 39 33 96 36 78 0 -5 0 -26 -1 -45 0 -19 3 -46 9 -60 9 -24 10
-23 11 10 1 47 20 19 20 -29 l0 -34 25 37 c22 33 24 42 15 74 -17 61 -12 187
11 274 14 58 18 93 13 122 l-8 41 -7 -49 c-10 -61 -15 -76 -30 -76 -8 0 -9 12
-3 38 4 20 8 55 9 77 1 22 14 80 29 129 25 78 27 93 17 130 -9 29 -9 61 -2
111 6 38 8 72 5 74 -10 10 -24 -24 -24 -59 -1 -19 -7 -52 -15 -74 -10 -29 -11
-43 -2 -57 9 -14 8 -22 -6 -37 -9 -10 -17 -24 -17 -30 0 -7 -11 -12 -25 -12
-18 0 -25 5 -25 19 0 11 6 21 13 24 10 4 10 7 0 18 -10 10 -16 10 -25 1 -31
-31 -88 -2 -62 32 19 27 18 39 -5 33 -17 -4 -18 -2 -9 18 7 17 7 33 0 54 -9
25 -8 34 5 47 13 12 14 23 7 52 -11 42 -26 50 -39 20 -10 -23 -35 -37 -35 -20
0 6 12 29 27 52 24 36 28 39 34 22 4 -11 12 -23 18 -27 8 -4 11 23 11 87 l-1
93 -22 -45 -22 -45 -84 -3 c-62 -3 -86 0 -93 10 -6 8 -8 -3 -6 -32 2 -39 -1
-46 -23 -59 -33 -19 -73 -8 -111 29 -28 29 -30 57 -3 46 7 -2 18 1 25 7 10 9
12 8 7 -5 -3 -9 3 -24 15 -34 19 -18 20 -18 33 0 17 23 9 46 -17 46 -15 0 -18
4 -13 18 14 35 26 84 22 89 -3 2 -8 -5 -12 -16 -3 -12 -11 -21 -16 -21 -15 0
-23 31 -12 49 5 9 6 28 2 44 -4 16 -5 35 -3 42 3 7 -8 19 -25 28 l-31 15 0
-40 c0 -35 -2 -39 -17 -32 -10 4 -46 7 -79 6 -54 -1 -63 1 -67 18 -3 11 -3 29
0 39 6 22 56 47 73 36 7 -4 14 2 17 14 3 12 12 21 19 21 17 0 18 22 2 39 -11
11 -9 12 9 6 18 -5 22 -3 17 9 -4 9 -1 16 6 16 8 0 10 -9 6 -24 -6 -24 14 -52
28 -39 4 4 4 0 0 -10 -3 -10 -1 -17 5 -17 6 0 11 5 11 11 0 6 10 9 23 7 17 -2
22 -9 22 -30 -1 -16 2 -28 6 -28 3 0 22 -13 40 -30 19 -16 37 -30 41 -30 12 0
19 18 8 25 -6 4 -8 10 -5 15 3 5 0 12 -6 16 -8 5 -9 3 -4 -6 5 -8 4 -11 -3 -6
-6 4 -9 12 -6 19 2 7 -7 24 -21 37 -14 13 -25 19 -25 14 0 -5 -9 6 -21 25 -11
18 -18 38 -16 45 3 6 -2 19 -11 28 -11 13 -19 15 -33 8 -19 -10 -62 1 -73 18
-7 12 46 35 70 30 10 -2 46 -39 80 -83 37 -48 74 -85 93 -92 17 -7 31 -18 31
-23 0 -6 6 -10 13 -8 14 3 77 -63 77 -80 0 -6 9 -16 20 -22 34 -18 50 21 48
125 -1 64 4 101 15 127 23 51 21 60 -4 20 -15 -22 -23 -54 -26 -100 -6 -101
-13 -132 -27 -132 -16 0 -62 51 -71 79 -3 11 -13 21 -21 21 -23 0 -29 29 -9
44 15 10 16 16 5 35 -7 14 -17 20 -27 17 -8 -3 -17 -6 -19 -6 -2 0 -4 -6 -4
-14 0 -19 -27 -28 -48 -17 -9 5 -28 24 -42 43 -14 18 -42 49 -62 70 -21 20
-38 40 -38 44 0 16 90 -10 144 -42 61 -36 74 -38 61 -7 -5 10 -7 26 -6 36 1 9
-4 17 -13 17 -8 0 -28 11 -44 25 -58 48 -120 68 -205 66 -76 -1 -78 -1 -67 19
17 32 8 41 -19 19 l-24 -20 23 -24 c12 -13 19 -28 16 -34 -4 -6 6 -9 24 -9 31
1 74 -28 64 -43 -8 -14 -66 -10 -94 6 -37 21 -52 18 -88 -15 -32 -29 -62 -31
-62 -5 0 7 14 27 30 45 31 33 36 55 6 25 -9 -9 -16 -13 -16 -9 0 4 -9 -1 -20
-11 -22 -20 -26 -14 -10 15 5 10 21 21 34 24 18 4 23 11 19 22 -3 8 -12 13
-19 10 -7 -3 -16 -1 -19 4 -10 17 -25 11 -25 -10 0 -11 -4 -19 -9 -17 -5 1
-25 -15 -46 -36 -31 -32 -42 -37 -65 -32 -42 9 -64 38 -57 75 5 23 3 30 -9 30
-9 0 -12 -5 -8 -12 4 -8 3 -10 -2 -5 -5 5 -9 12 -10 15 -3 24 -21 44 -50 58
-38 18 -44 33 -14 41 27 7 25 18 -9 42 -40 29 -69 27 -77 -3 -3 -14 -3 -29 0
-35 4 -5 1 -13 -5 -17 -8 -4 -9 -3 -5 4 5 8 2 10 -8 6 -9 -3 -13 -10 -10 -15
10 -16 -26 -62 -39 -51 -7 5 -30 12 -52 15 -22 3 -49 8 -59 13 -14 5 -17 4
-12 -4 4 -7 1 -12 -8 -12 -8 0 -18 5 -21 10 -3 6 -1 10 4 10 6 0 11 5 11 11 0
7 -9 9 -22 6 -13 -4 -31 1 -46 13 -19 16 -34 18 -75 14 -50 -6 -97 8 -97 29 0
5 -9 19 -20 31 -10 11 -36 41 -56 66 -78 95 -183 148 -359 179 -115 20 -163
25 -154 17z m1079 -371 c-7 -8 -17 -15 -22 -15 -11 0 14 29 26 30 5 0 3 -7 -4
-15z m108 -100 c33 -39 28 -100 -6 -72 -16 13 -16 13 4 -38 3 -8 1 -15 -5 -15
-7 0 -14 8 -18 18 -3 9 -20 32 -36 50 -23 23 -40 32 -64 32 -18 0 -33 5 -33
11 0 6 9 9 20 6 11 -3 20 -1 20 4 0 17 29 9 61 -18 l34 -28 -23 33 c-13 17
-30 32 -38 32 -8 0 -14 5 -14 11 0 21 74 1 98 -26z m-679 -31 c12 -19 21 -37
21 -39 0 -4 -67 32 -80 43 -4 3 28 32 36 32 1 0 11 -16 23 -36z m-101 -8 c31
-17 131 -116 117 -116 -6 0 -16 9 -22 19 -24 38 -96 71 -174 79 -59 5 -74 11
-77 24 -3 16 4 17 63 13 37 -3 79 -12 93 -19z m604 -13 c2 -21 11 -30 36 -39
17 -5 37 -15 44 -22 7 -7 20 -12 30 -12 23 0 23 -6 -1 -32 -11 -11 -36 -51
-56 -89 -20 -37 -40 -71 -46 -75 -6 -3 -19 -25 -28 -48 l-18 -41 -16 55 c-17
59 -77 167 -104 188 -9 6 -18 19 -19 28 -2 9 -14 29 -28 43 -25 26 -34 51 -18
51 122 7 188 13 191 16 13 13 30 0 33 -23z m-656 -33 c26 0 14 -16 -22 -29
-27 -10 -39 -10 -47 -1 -9 8 -7 15 8 26 11 8 26 12 33 9 8 -3 20 -5 28 -5z
m356 -32 c-9 -9 -12 -7 -12 12 0 19 3 21 12 12 9 -9 9 -15 0 -24z m-282 2 c0
-5 -7 -10 -15 -10 -8 0 -15 5 -15 10 0 6 7 10 15 10 8 0 15 -4 15 -10z m-120
-72 c0 -5 -4 -8 -10 -8 -5 0 -10 10 -10 23 0 18 2 19 10 7 5 -8 10 -18 10 -22z
m150 13 c0 -9 -69 -31 -99 -31 -25 0 -28 15 -5 28 19 11 104 13 104 3z m224
-11 c14 -5 26 -15 26 -21 0 -7 11 -27 25 -45 14 -18 23 -40 20 -48 -16 -51
-17 -51 -36 -1 -10 28 -19 56 -19 62 0 18 -32 53 -42 47 -4 -3 -8 0 -8 5 0 13
2 13 34 1z m946 -5 c10 -12 10 -15 -3 -15 -8 0 -20 7 -27 15 -10 12 -10 15 3
15 8 0 20 -7 27 -15z m-1051 -19 c21 -22 21 -26 8 -48 -8 -12 -18 -39 -22 -58
-4 -19 -13 -45 -21 -57 -13 -21 -13 -23 6 -23 13 0 22 9 26 27 7 27 63 113 74
113 8 0 37 -85 46 -132 5 -32 4 -36 -13 -32 -10 3 -28 -4 -40 -15 -24 -23 -38
-28 -27 -10 7 12 -15 59 -28 59 -4 0 -8 -17 -9 -37 0 -21 -3 -33 -5 -27 -3 8
-16 9 -39 4 -19 -4 -35 -6 -35 -3 0 3 -7 0 -15 -7 -12 -10 -15 -10 -15 3 0 10
-7 15 -19 12 -29 -5 -48 16 -53 60 -8 61 2 77 48 82 44 4 80 39 90 86 8 33 14
34 43 3z m689 -21 c-3 -3 -9 2 -12 12 -6 14 -5 15 5 6 7 -7 10 -15 7 -18z
m156 -10 c-4 -8 -10 -15 -15 -15 -4 0 -6 7 -3 15 4 8 10 15 15 15 4 0 6 -7 3
-15z m-1106 -33 c2 -13 -2 -22 -10 -22 -10 0 -9 -3 2 -10 13 -9 13 -11 0 -20
-20 -13 -43 -13 -35 0 3 6 1 10 -6 10 -8 0 -6 6 4 18 10 10 17 26 17 36 0 25
24 14 28 -12z m987 -3 c4 -10 12 -19 20 -19 7 0 15 -5 17 -12 5 -14 60 5 84
30 8 8 17 12 19 10 14 -14 4 -147 -14 -193 -21 -55 -18 -53 -108 -33 -41 8
-56 8 -67 -1 -12 -10 -17 -9 -27 7 -8 12 -19 17 -32 14 -12 -3 -23 1 -29 12
-5 9 -20 16 -33 16 -28 0 -49 46 -33 73 5 10 6 22 2 29 -5 8 2 9 25 5 28 -6
37 -2 61 23 31 33 40 37 40 16 0 -21 19 -30 35 -16 9 8 12 22 8 41 -5 24 -3
28 10 23 9 -3 19 -14 22 -25z m-1290 -118 c3 -5 1 -12 -5 -16 -5 -3 -10 1 -10
9 0 18 6 21 15 7z m931 -13 c-15 -49 -22 -129 -13 -135 5 -3 3 -10 -4 -15 -11
-8 -11 -9 1 -5 10 3 14 14 12 31 -2 23 0 27 15 22 40 -12 112 -20 178 -20 57
-1 69 -4 67 -16 -5 -21 -18 -27 -72 -34 -28 -4 -54 -14 -65 -26 -11 -13 -25
-18 -37 -14 -13 4 -16 1 -12 -10 10 -27 -14 -48 -40 -34 -19 10 -19 8 4 -17
14 -15 36 -39 49 -52 13 -13 21 -27 17 -30 -10 -10 -66 19 -85 43 -16 20 -20
21 -25 8 -3 -8 1 -22 10 -31 8 -8 13 -17 10 -20 -7 -8 -76 9 -71 17 3 5 0 12
-6 16 -8 5 -9 3 -4 -6 6 -10 -4 -11 -51 -6 -32 4 -72 12 -87 18 -27 10 -28 13
-21 52 9 51 9 66 1 91 -9 28 45 85 81 85 15 0 37 3 50 6 17 5 22 2 22 -14 0
-31 -27 -52 -66 -52 -23 0 -33 -4 -28 -11 4 -8 0 -9 -15 -4 -26 8 -28 -11 -4
-37 22 -24 118 -26 127 -2 3 8 11 12 17 8 8 -5 9 -3 4 5 -4 7 -17 10 -29 7
-11 -2 -37 -1 -56 4 l-35 8 34 1 c50 1 77 33 102 117 12 41 24 74 27 74 2 0 1
-10 -2 -22z m-263 -50 c4 -10 7 -10 15 0 7 10 13 8 25 -12 l16 -24 -45 3 c-51
3 -59 8 -51 30 8 18 33 20 40 3z m-313 -73 c-8 -10 -9 -19 -1 -32 10 -17 10
-16 11 3 0 32 28 37 60 12 16 -13 29 -25 29 -28 2 -17 -22 -33 -49 -33 l-32 0
5 -48 c4 -33 2 -51 -8 -59 -10 -8 -14 -8 -18 2 -3 7 -6 1 -6 -14 -1 -31 -21
-39 -21 -9 0 15 -5 18 -21 14 -12 -4 -25 0 -30 8 -7 11 -9 8 -9 -8 0 -20 -3
-21 -26 -13 -14 6 -30 8 -35 4 -5 -3 -9 0 -9 6 0 6 -4 9 -9 5 -17 -10 -19 10
-5 50 7 22 14 47 14 56 0 25 28 31 35 8 8 -25 25 -15 18 11 -3 13 0 20 8 20
16 0 79 60 79 75 0 6 6 17 13 24 10 10 13 7 15 -14 2 -14 -2 -32 -8 -40z m-62
13 c-21 -32 -36 -33 -31 -3 4 17 12 25 25 25 19 0 19 -2 6 -22z m1247 -25 c14
-15 23 -35 20 -44 -6 -19 35 -42 80 -45 17 -1 35 -2 42 -3 16 -1 30 -74 15
-79 -7 -2 -1 -19 15 -43 31 -47 26 -58 -17 -33 -24 15 -33 16 -39 6 -6 -10
-16 -9 -50 3 -38 13 -42 13 -49 -3 -4 -9 -13 -17 -21 -17 -7 0 -22 -15 -32
-34 -25 -47 -59 -68 -59 -36 0 8 7 15 15 15 8 0 15 7 15 16 0 8 -4 12 -10 9
-5 -3 -10 3 -10 14 0 12 7 21 15 21 8 0 15 -4 15 -10 0 -5 5 -10 11 -10 6 0 9
10 7 23 -2 15 -9 21 -23 20 -42 -5 -48 5 -25 43 12 19 20 37 18 40 -5 4 -49
-38 -73 -71 -13 -18 -14 -19 -15 -2 0 30 20 59 77 112 47 43 54 54 51 80 l-4
30 -12 -25 c-18 -39 -59 -83 -70 -76 -6 4 -8 -2 -5 -14 3 -11 0 -20 -6 -20 -6
0 -11 4 -11 9 0 5 -19 12 -42 16 l-43 7 29 21 c16 12 52 41 79 65 28 23 59 42
68 42 10 0 30 -12 44 -27z m-936 -181 c-3 -35 2 -42 44 -60 44 -20 95 -67 84
-78 -3 -4 -18 2 -33 12 -27 19 -32 22 -71 43 -23 11 -30 4 -15 -14 9 -12 28
-67 37 -112 9 -45 -1 -57 -27 -33 -28 26 -48 26 -41 0 4 -14 0 -20 -12 -20
-13 0 -16 6 -12 21 4 15 0 23 -14 26 -10 3 -19 14 -19 24 0 11 -4 19 -10 19
-5 0 -10 -7 -10 -16 0 -11 -6 -15 -20 -11 -10 3 -24 -1 -31 -9 -15 -19 -29
-18 -29 2 0 8 -4 12 -10 9 -5 -3 -10 -15 -10 -26 0 -11 -7 -19 -16 -19 -12 0
-14 4 -7 13 17 21 0 62 -27 62 -43 1 -32 24 30 64 34 22 71 43 81 46 10 4 19
11 19 17 0 6 -8 8 -17 5 -10 -3 -41 -12 -68 -20 -28 -8 -61 -19 -72 -26 -12
-6 -34 -11 -49 -11 l-27 0 27 21 c16 12 45 22 76 24 61 5 89 13 108 31 7 8 20
14 28 14 19 0 30 -30 14 -40 -9 -5 -9 -9 -1 -14 6 -4 8 -18 5 -32 -4 -14 -2
-24 5 -24 6 0 11 14 11 30 0 25 7 46 28 79 1 3 9 -4 17 -15 14 -18 14 -17 15
14 0 21 4 31 10 27 6 -4 10 -14 9 -23z m541 -12 c0 -5 14 -7 33 -4 19 3 27 2
20 -3 -14 -10 -5 -27 19 -36 11 -4 19 0 23 13 6 19 7 19 41 -1 19 -10 52 -22
72 -25 38 -6 92 -33 92 -46 0 -19 -25 -18 -51 1 -29 22 -43 25 -93 23 l-30 -2
30 -32 c30 -32 64 -82 64 -93 0 -3 -7 -5 -15 -5 -9 0 -20 -12 -26 -26 -11 -31
-12 -30 24 -39 21 -6 27 -4 27 9 0 21 16 21 24 0 15 -38 -9 -44 -175 -41 -87
2 -161 6 -165 10 -12 11 18 38 35 31 40 -17 154 -23 187 -10 19 7 19 8 0 21
-14 11 -22 11 -37 2 -14 -9 -21 -9 -31 1 -6 6 -21 12 -32 12 -11 0 -35 5 -53
12 -26 10 -38 10 -53 0 -21 -13 -33 -2 -24 22 3 9 1 16 -4 16 -6 0 -12 -10
-14 -22 -2 -12 -9 -23 -15 -26 -9 -2 -11 6 -7 30 4 23 24 50 65 91 62 60 93
71 104 37 3 -11 10 -20 15 -20 5 0 1 13 -8 30 -9 16 -22 30 -29 30 -17 0 -63
-22 -63 -30 0 -12 -99 -52 -118 -48 -10 2 -18 13 -18 26 -1 12 4 21 10 20 15
-3 108 23 123 35 7 5 11 13 8 17 -3 5 1 11 7 14 7 3 0 4 -17 1 -22 -4 -26 -3
-15 5 19 13 70 13 70 0z m-1041 -53 c44 -51 50 -67 26 -67 -8 0 -15 -4 -15
-10 0 -21 -16 -9 -29 23 -20 47 -26 11 -8 -50 15 -54 10 -91 -15 -107 -14 -8
-21 -6 -31 9 -14 18 -15 18 -26 -3 -16 -29 -31 -28 -31 3 0 14 -4 25 -10 25
-5 0 -10 -9 -10 -20 0 -11 -4 -20 -10 -20 -5 0 -10 5 -10 10 0 20 -20 10 -34
-17 -13 -24 -15 -25 -15 -8 -1 11 5 38 13 59 8 23 12 66 10 105 -3 63 -3 65
12 39 8 -16 19 -28 24 -28 4 0 24 18 44 41 19 23 39 38 44 35 6 -4 8 3 5 15
-9 34 19 19 66 -34z m1781 -18 c0 -6 -5 -19 -10 -30 -8 -13 -7 -19 0 -19 6 0
15 -11 20 -25 5 -14 17 -25 28 -25 10 0 28 -13 39 -28 19 -26 20 -31 7 -67 -7
-22 -10 -42 -5 -45 4 -3 10 -15 14 -28 4 -19 3 -21 -8 -12 -8 6 -22 10 -32 9
-10 -2 -29 1 -42 5 -15 5 -32 3 -48 -5 -22 -12 -27 -11 -44 11 -19 24 -20 24
-34 6 -8 -11 -20 -16 -30 -12 -23 8 -11 41 37 99 22 26 34 47 27 47 -10 0 -10
3 -1 12 7 7 12 17 12 24 0 18 -48 23 -62 7 -15 -18 -52 -13 -56 8 -2 13 8 18
47 24 27 4 59 4 70 0 15 -5 24 1 36 24 15 30 35 42 35 20z m-110 -118 c0 -21
-48 -39 -89 -34 -52 7 -41 23 21 34 63 10 68 10 68 0z m-1000 -55 c0 -3 -4 -8
-10 -11 -5 -3 -10 -1 -10 4 0 6 5 11 10 11 6 0 10 -2 10 -4z m950 -4 c0 -5 -7
-17 -16 -28 -14 -17 -15 -17 -10 -1 3 10 6 23 6 28 0 5 5 9 10 9 6 0 10 -4 10
-8z m-1392 -60 c0 -44 8 -77 32 -133 58 -134 58 -156 1 -98 -28 28 -31 29 -31
10 0 -28 -12 -26 -44 5 l-26 27 0 -27 c0 -22 -3 -25 -17 -18 -19 11 -63 -4
-63 -22 0 -6 -5 -3 -11 7 -7 12 -17 15 -36 11 -23 -6 -25 -5 -19 12 18 42 18
55 1 80 -15 23 -14 39 3 39 4 0 20 13 36 28 16 15 40 30 53 33 25 7 30 23 12
41 -8 8 -8 13 0 17 6 4 11 2 11 -3 0 -16 66 -13 79 2 6 8 8 17 5 20 -6 5 3 27
11 27 1 0 3 -26 3 -58z m610 8 c26 -27 76 -128 86 -171 5 -24 3 -27 -22 -25
-15 0 -32 8 -39 16 -10 13 -11 12 -10 -5 2 -19 -3 -20 -108 -17 -99 2 -112 4
-126 23 -13 18 -19 20 -37 10 -19 -10 -22 -9 -22 6 0 10 9 31 19 47 11 17 17
34 15 38 -3 5 0 16 8 25 14 18 14 18 -37 -3 -8 -3 -15 -2 -15 2 0 8 80 48 170
86 41 18 82 6 118 -32z m142 -70 c0 -3 -12 -5 -26 -5 -42 2 -101 84 -78 108 6
5 104 -92 104 -103z m-886 85 c-4 -8 -8 -15 -10 -15 -2 0 -4 7 -4 15 0 8 4 15
10 15 5 0 7 -7 4 -15z m476 6 c0 -12 -20 -25 -27 -18 -7 7 6 27 18 27 5 0 9
-4 9 -9z m820 -3 c0 -7 14 -21 31 -31 18 -10 29 -20 25 -24 -8 -9 14 -33 31
-33 8 0 11 5 8 10 -7 11 0 12 33 4 17 -5 20 -10 12 -19 -11 -13 -7 -35 17
-120 5 -19 5 -19 -14 -2 -27 23 -35 21 -28 -6 6 -23 4 -24 -52 -23 -54 1 -58
-1 -72 -29 -10 -20 -16 -25 -18 -15 -13 44 -14 46 -24 28 -7 -13 -18 -15 -44
-11 -39 6 -46 -5 -15 -25 27 -17 25 -28 -7 -40 -42 -15 -82 -8 -100 17 -19 28
-5 49 22 33 13 -7 23 -4 37 10 10 10 16 23 13 28 -3 5 -1 19 5 31 16 29 7 33
-23 9 -57 -45 -49 -5 12 63 28 30 54 37 44 10 -4 -11 -3 -14 6 -9 7 5 10 15 7
22 -3 9 12 37 34 65 22 28 40 55 40 60 0 5 5 9 10 9 6 0 10 -6 10 -12z m-1439
-31 c-7 -7 -15 -6 -26 3 -24 20 -18 31 10 18 17 -8 22 -15 16 -21z m567 16 c2
-7 -3 -13 -12 -13 -9 0 -16 -4 -16 -10 0 -5 -7 -10 -15 -10 -15 0 -95 39 -95
46 0 12 134 -2 138 -13z m-448 -17 c0 -3 -4 -8 -10 -11 -5 -3 -10 -1 -10 4 0
6 5 11 10 11 6 0 10 -2 10 -4z m1254 -10 c-3 -8 -29 -32 -57 -54 -73 -54 -78
-56 -88 -41 -10 17 17 43 85 80 58 33 68 35 60 15z m-1314 -26 c-34 -27 -60
-34 -74 -20 -17 17 20 40 63 40 l36 0 -25 -20z m290 -18 c44 -42 51 -62 21
-62 -18 0 -61 48 -74 83 -10 28 9 20 53 -21z m1362 -35 c-17 -21 -86 -14 -91
8 -2 15 2 17 26 12 16 -3 35 -2 43 3 20 13 36 -5 22 -23z m212 18 c-7 -16 -24
-21 -24 -6 0 8 7 13 27 20 1 1 0 -6 -3 -14z m-1294 -10 c-7 -9 -15 -13 -17
-11 -7 7 7 26 19 26 6 0 6 -6 -2 -15z m1403 -61 c4 -4 7 -16 7 -26 0 -10 7
-18 15 -18 8 0 15 -7 15 -15 0 -8 8 -15 17 -15 12 0 14 -3 6 -11 -6 -6 -7 -27
-2 -57 11 -70 18 -132 13 -132 -2 0 -10 12 -18 28 -10 17 -15 21 -16 11 0 -9
-6 -22 -14 -28 -11 -9 -15 -8 -21 6 -6 16 -8 16 -16 -4 -9 -26 -29 -31 -29 -8
0 9 -6 12 -15 9 -17 -7 -20 -40 -5 -49 18 -11 11 -22 -12 -21 -20 1 -23 6 -20
36 1 19 7 37 12 40 5 3 12 25 16 49 7 42 6 43 -15 30 -11 -8 -21 -17 -21 -21
0 -5 -4 -8 -10 -8 -15 0 -12 56 5 70 8 6 17 22 21 33 3 12 16 30 27 39 20 16
21 17 4 36 -21 23 -22 32 -2 32 8 0 15 -6 15 -14 0 -8 7 -16 14 -19 15 -6 12
16 -5 39 -5 5 -5 21 -2 34 6 24 7 24 17 -7 6 -17 14 -35 19 -39z m-2297 -31
c4 -13 4 -27 0 -30 -3 -3 -2 -11 3 -17 12 -16 23 -86 13 -86 -7 0 -52 136 -52
159 0 20 30 -2 36 -26z m2214 -3 c0 -5 -15 -10 -32 -10 -25 0 -29 3 -18 10 20
13 50 13 50 0z m-2050 -21 c0 -5 -4 -9 -10 -9 -5 0 -10 7 -10 16 0 8 5 12 10
9 6 -3 10 -10 10 -16z m1210 -4 c7 -9 10 -18 7 -22 -8 -7 -37 15 -37 28 0 14
16 11 30 -6z m-300 -10 c19 -2 53 -4 75 -5 l40 -2 -31 -9 c-17 -5 -66 -13
-108 -17 l-77 -8 -15 28 -15 29 48 -6 c26 -3 64 -8 83 -10z m-333 -27 c-16
-10 -21 -2 -13 19 6 15 9 15 16 3 6 -9 5 -17 -3 -22z m173 15 c8 -7 -32 -33
-41 -27 -5 3 -9 -2 -9 -10 0 -9 -5 -16 -10 -16 -9 0 -4 42 7 63 4 7 42 0 53
-10z m-713 -26 c4 -7 24 -21 43 -31 34 -17 100 -106 79 -106 -5 0 -33 24 -60
53 -30 30 -45 41 -38 27 14 -27 35 -78 49 -122 10 -32 -8 -39 -34 -13 -20 20
-26 19 -26 -5 0 -26 -17 -25 -39 1 -14 18 -21 20 -39 10 -11 -6 -24 -11 -28
-11 -10 0 5 141 19 172 6 15 21 29 32 31 11 2 23 5 27 6 4 0 11 -5 15 -12z
m1083 -30 c15 -16 19 -16 27 -4 21 36 143 -52 143 -104 0 -11 4 -18 9 -15 4 3
6 -6 3 -19 -2 -14 -5 -25 -6 -25 -1 0 -17 11 -36 25 -47 34 -56 31 -31 -11 26
-43 27 -63 3 -41 -25 23 -35 21 -27 -3 5 -14 2 -20 -10 -20 -9 0 -13 4 -10 10
3 5 0 7 -8 4 -8 -3 -18 0 -22 5 -3 6 -11 9 -16 5 -5 -3 -17 0 -25 7 -14 11
-15 10 -12 -11 4 -32 -20 -37 -28 -5 l-6 26 -22 -20 c-28 -26 -36 -26 -36 -1
0 15 -7 20 -25 20 -30 0 -31 4 -4 42 30 42 19 43 -29 2 l-41 -35 -7 26 c-6 26
9 56 30 54 7 0 6 -2 -2 -6 -6 -2 -10 -9 -7 -13 3 -5 22 9 42 31 28 31 33 43
24 49 -14 8 -10 10 64 55 20 12 26 10 65 -28z m470 33 c0 -5 -5 -10 -11 -10
-5 0 -7 5 -4 10 3 6 8 10 11 10 2 0 4 -4 4 -10z m-970 -8 c0 -13 -12 -22 -22
-16 -10 6 -1 24 13 24 5 0 9 -4 9 -8z m-37 -15 c3 -8 1 -20 -4 -28 -6 -10 -9
-7 -9 14 0 29 5 35 13 14z m1096 7 c30 -6 31 -8 15 -25 -21 -24 -79 -26 -88
-3 -14 36 3 42 73 28z m184 -9 c18 -2 46 -32 47 -50 0 -6 18 -46 39 -89 22
-43 37 -84 34 -92 -13 -35 -111 -52 -129 -23 -2 4 -16 4 -30 -1 -14 -6 -30 -8
-35 -4 -5 3 -9 0 -9 -5 0 -6 7 -11 16 -11 8 0 12 -5 9 -11 -4 -6 -21 -8 -38
-5 -27 5 -29 5 -9 -4 27 -12 29 -24 2 -17 -11 3 -27 -1 -34 -9 -20 -20 -24
-18 -22 14 0 15 11 35 24 45 12 10 22 28 22 40 1 12 7 33 15 47 21 37 18 44
-11 21 -48 -38 -66 -23 -44 34 13 35 111 136 124 127 6 -3 19 -7 29 -7z m92
-25 c3 -6 3 -20 -1 -33 -7 -21 -7 -21 -15 -2 -4 11 -8 26 -8 33 -1 14 15 16
24 2z m-1497 -22 c9 -9 12 -9 12 0 0 24 19 11 25 -18 4 -16 11 -30 16 -30 13
0 11 -26 -4 -38 -6 -6 -23 -13 -37 -17 -22 -5 -25 -3 -25 20 0 14 3 25 8 25 6
0 -4 23 -21 50 -7 11 -21 -27 -16 -44 3 -10 2 -17 -2 -15 -27 12 -94 55 -94
61 0 7 38 13 96 16 16 1 35 -3 42 -10z m190 -90 c-3 -18 8 -25 74 -47 82 -28
104 -41 69 -41 -14 0 -20 -4 -15 -12 5 -8 0 -9 -17 -4 -62 19 -64 18 -28 -13
44 -37 99 -117 99 -143 0 -17 -4 -16 -40 7 -45 28 -58 32 -40 10 9 -11 9 -15
1 -15 -6 0 -16 11 -21 25 -6 16 -14 23 -25 19 -8 -4 -22 -1 -30 6 -12 10 -18
6 -33 -19 -10 -17 -22 -28 -25 -24 -11 10 -8 25 3 18 6 -3 10 -1 10 4 0 6 -4
11 -10 11 -5 0 -10 6 -10 14 0 8 -5 18 -12 22 -6 4 -8 3 -4 -4 3 -6 -9 -37
-28 -69 -19 -33 -38 -71 -41 -86 -4 -15 -11 -27 -16 -27 -13 0 -11 23 5 56 7
16 17 48 20 72 6 41 5 43 -25 54 -26 9 -30 14 -24 36 11 43 104 149 119 135 3
-3 10 6 16 21 11 31 33 25 28 -6z m908 -44 c-5 -18 6 -34 54 -80 55 -52 74
-93 42 -87 -7 2 -12 -2 -12 -7 0 -18 42 -94 59 -106 13 -10 13 -14 2 -28 -19
-23 -31 -20 -31 7 0 29 -48 56 -61 35 -5 -7 -9 -16 -9 -19 0 -4 -19 -9 -42
-12 -36 -5 -46 -2 -64 16 -12 13 -23 29 -26 37 -7 18 -38 -48 -38 -80 0 -19
-6 -22 -53 -24 -10 -1 -22 -8 -27 -16 -7 -11 -14 -12 -34 -2 -22 10 -26 9 -26
-3 0 -8 -2 -15 -4 -15 -20 0 -135 58 -148 74 -21 26 -35 14 -20 -19 8 -17 17
-23 27 -18 19 7 85 -53 115 -104 l19 -33 -35 0 c-19 0 -45 5 -56 11 -18 10
-20 9 -16 -7 3 -11 9 -27 13 -36 6 -16 -9 -18 -77 -9 -5 1 -8 15 -8 32 0 18
-4 28 -10 24 -6 -4 -8 -11 -5 -16 8 -12 -4 -49 -16 -49 -5 0 -9 10 -10 23 -1
20 -2 19 -13 -7 -13 -28 -13 -28 -19 -6 -3 13 -11 21 -19 18 -7 -3 -42 -2 -78
1 l-65 7 58 58 c31 33 56 61 54 62 -5 5 -83 -38 -106 -57 -19 -17 -61 -34 -61
-26 0 3 20 27 45 54 25 26 44 54 42 62 -1 10 20 24 63 41 36 14 71 29 79 34 8
5 16 4 22 -5 6 -10 9 -4 9 19 0 40 18 42 26 3 5 -22 10 -27 25 -24 10 3 19 0
19 -6 0 -6 12 -11 28 -11 15 0 38 -7 51 -16 13 -9 43 -23 67 -30 42 -12 44
-12 44 7 0 16 4 19 23 13 12 -3 27 -11 34 -16 12 -10 27 29 40 106 l6 39 -48
-33 -48 -33 5 26 c3 15 1 28 -4 29 -5 2 1 23 14 48 24 47 68 79 111 82 32 3
43 25 17 33 -20 6 -122 -9 -142 -21 -6 -4 -9 -1 -6 7 3 8 15 15 29 17 13 1 54
7 92 13 60 10 67 13 67 33 0 30 10 39 27 24 8 -7 12 -21 9 -34z m-636 -8 c0
-3 -4 -8 -10 -11 -5 -3 -10 -1 -10 4 0 6 5 11 10 11 6 0 10 -2 10 -4z m788
-23 c-2 -10 -10 -18 -18 -18 -8 0 -16 8 -18 18 -2 12 3 17 18 17 15 0 20 -5
18 -17z m-1608 -17 c0 -9 -30 -14 -35 -6 -4 6 3 10 14 10 12 0 21 -2 21 -4z
m1170 -6 c11 -7 11 -10 2 -10 -7 0 -10 -5 -7 -10 4 -7 13 -6 26 1 26 13 36 5
19 -16 -11 -13 -8 -13 28 -1 35 13 40 13 36 1 -3 -8 -14 -17 -25 -20 -10 -4
-19 -11 -19 -16 0 -5 -11 -9 -25 -9 -14 0 -25 5 -25 11 0 7 -10 9 -24 5 -14
-3 -28 -2 -31 4 -3 5 -17 10 -31 10 -13 0 -24 5 -24 11 0 7 11 9 26 6 31 -6
72 22 51 35 -6 4 -7 8 -2 8 6 0 17 -5 25 -10z m-421 -13 c6 -8 8 -17 4 -21 -4
-3 2 -13 13 -21 26 -20 9 -19 -29 3 -52 28 -62 52 -23 52 13 0 29 -6 35 -13z
m61 3 c0 -5 -7 -10 -15 -10 -8 0 -15 5 -15 10 0 6 7 10 15 10 8 0 15 -4 15
-10z m90 -5 c0 -1 -11 -14 -24 -28 -26 -28 -51 -29 -88 -3 -22 16 -22 16 9 16
18 0 34 3 36 8 4 6 67 13 67 7z m-755 -16 c22 -6 43 -16 47 -23 6 -8 12 -8 27
1 17 10 25 7 64 -27 25 -22 50 -53 55 -70 14 -37 6 -38 -33 -1 -16 16 -43 31
-58 35 l-28 7 40 -59 c42 -63 67 -127 40 -106 -8 6 -23 10 -34 8 -10 -1 -25 2
-33 8 -9 8 -16 8 -24 0 -9 -9 -16 -8 -30 5 -15 13 -18 13 -18 2 0 -8 -9 -22
-20 -32 -19 -16 -20 -16 -20 3 0 11 4 20 9 20 12 0 18 41 10 70 -6 21 -7 19
-8 -14 -1 -22 -4 -37 -7 -33 -3 3 -16 -6 -28 -20 -27 -31 -56 -26 -56 9 0 13
9 43 21 67 l20 45 -21 -19 c-29 -26 -26 0 5 46 29 40 56 43 94 8 11 -10 22
-15 25 -11 8 14 -8 29 -56 50 -27 11 -48 26 -48 31 0 14 15 14 65 0z m860 -19
c3 -5 1 -10 -4 -10 -6 0 -11 5 -11 10 0 6 2 10 4 10 3 0 8 -4 11 -10z m-425
-80 c0 -5 -4 -10 -10 -10 -5 0 -10 5 -10 10 0 6 5 10 10 10 6 0 10 -4 10 -10z
m1326 -41 c7 -13 20 -49 29 -79 10 -30 24 -62 31 -71 17 -19 18 -36 2 -41 -8
-3 -7 -16 5 -46 9 -23 17 -47 17 -53 0 -13 -42 -1 -53 15 -5 8 -12 6 -21 -6
-15 -21 -72 -24 -79 -5 -3 9 -7 9 -20 -2 -14 -11 -20 -11 -32 -1 -8 7 -15 18
-15 25 0 10 -9 11 -35 5 -44 -10 -46 6 -5 45 22 21 28 34 24 52 -5 20 0 26 40
44 25 11 46 24 46 29 0 17 -23 11 -79 -20 -59 -33 -111 -39 -131 -15 -10 12
-5 18 35 35 26 11 52 20 59 20 7 0 17 5 24 12 9 9 12 9 12 0 0 -14 39 -16 73
-3 18 7 24 17 25 40 1 56 26 67 48 20z m-686 1 c0 -5 -5 -10 -11 -10 -5 0 -7
5 -4 10 3 6 8 10 11 10 2 0 4 -4 4 -10z m620 -10 c0 -5 -4 -10 -10 -10 -5 0
-10 5 -10 10 0 6 5 10 10 10 6 0 10 -4 10 -10z m-1106 -72 c-43 -27 -74 -31
-74 -10 0 16 71 49 96 44 23 -4 21 -6 -22 -34z m-774 1 c0 -28 26 -75 50 -92
11 -8 22 -24 25 -36 2 -11 7 -26 10 -31 3 -6 -1 -10 -11 -10 -12 0 -14 -4 -7
-12 6 -7 13 -26 17 -43 3 -16 9 -40 11 -52 6 -27 -16 -31 -35 -8 -7 8 -22 15
-34 15 -12 0 -30 10 -41 23 l-20 22 -3 -22 c-3 -23 -42 -34 -42 -13 0 6 5 10
11 10 6 0 9 6 6 14 -3 8 -3 17 1 19 4 2 1 2 -6 1 -18 -5 -27 23 -13 40 7 8 11
18 9 22 -1 5 3 19 10 31 13 24 42 21 42 -3 0 -8 5 -14 10 -14 13 0 -2 31 -24
49 -14 12 -14 16 -1 34 8 12 15 36 15 55 0 20 4 31 10 27 6 -3 10 -15 10 -26z
m-181 -13 c13 -21 21 -49 20 -77 l0 -44 -15 55 c-7 30 -18 63 -24 72 -5 10
-10 20 -10 23 0 12 10 3 29 -29z m719 10 c3 -12 -1 -17 -10 -14 -7 3 -15 13
-16 22 -3 12 1 17 10 14 7 -3 15 -13 16 -22z m16 -196 c1 -8 5 -22 9 -30 3 -8
8 -26 11 -40 3 -18 4 -15 4 10 0 52 0 52 27 34 13 -8 29 -13 35 -9 5 3 16 3
23 -2 6 -4 17 -8 23 -9 20 -3 64 -36 59 -44 -2 -4 7 -12 20 -18 14 -7 25 -16
25 -21 0 -15 -40 0 -54 21 -9 13 -15 15 -18 7 -5 -15 -57 11 -100 50 -18 16
-28 20 -28 11 0 -7 26 -37 59 -66 68 -62 83 -99 42 -107 -28 -6 -61 11 -98 51
-39 42 -35 19 7 -47 22 -34 40 -64 40 -66 0 -9 -36 10 -50 27 -14 16 -18 17
-42 4 -27 -14 -28 -14 -34 12 -9 40 -12 49 -13 31 -1 -22 -36 -30 -64 -16 -41
22 -67 56 -67 89 0 17 -7 40 -17 50 -15 17 -15 18 5 18 11 0 22 -4 24 -9 5
-13 128 -73 128 -62 0 12 -54 51 -70 51 -7 0 -10 7 -7 15 4 8 2 17 -3 20 -4 3
-10 0 -12 -7 -3 -8 -16 -5 -42 10 -21 12 -42 20 -47 17 -5 -4 -9 -2 -9 4 0 6
-11 13 -25 17 -29 7 -55 34 -33 34 8 0 33 -9 55 -20 36 -17 48 -18 99 -9 54
10 60 9 75 -10 16 -20 17 -18 24 47 l7 67 15 -45 c8 -25 15 -52 17 -60z m-181
70 c-4 -4 -24 -11 -43 -14 l-35 -7 22 20 c21 18 76 19 56 1z m1172 -8 c1 -4 5
-20 9 -37 5 -16 8 -37 7 -46 -1 -9 18 -26 48 -43 46 -24 81 -59 81 -78 0 -4
-6 -5 -14 -2 -17 7 -30 -28 -21 -56 5 -14 2 -20 -9 -20 -9 0 -16 -7 -16 -15 0
-51 -53 30 -65 100 -4 22 -11 47 -16 55 -21 38 -2 -61 37 -192 8 -27 -21 -22
-40 7 -9 13 -16 30 -16 37 0 7 -5 31 -11 53 l-12 40 -13 -58 c-8 -33 -11 -63
-8 -68 9 -15 24 -10 24 7 0 8 4 12 10 9 13 -8 6 -71 -8 -68 -6 2 -9 -4 -6 -12
4 -8 2 -15 -2 -16 -41 -3 -78 -11 -94 -19 -10 -5 -27 -10 -37 -10 -22 0 -103
33 -103 41 0 10 64 18 70 9 7 -11 69 -14 107 -5 33 7 67 35 44 35 -6 0 -11 7
-11 15 0 8 -7 15 -15 15 -8 0 -16 8 -16 18 -1 9 -4 2 -8 -17 -8 -44 -30 -53
-27 -12 l2 30 -33 -25 c-22 -17 -33 -20 -33 -12 0 8 4 18 9 23 5 6 12 21 16
33 6 21 5 23 -13 13 -25 -13 -62 -14 -80 -2 -12 7 -11 14 2 38 12 24 36 39
108 71 93 41 112 57 87 73 -11 7 -9 10 9 15 12 4 22 14 22 25 0 10 5 21 11 24
6 4 8 13 5 20 -2 7 -2 16 1 19 7 6 18 -1 18 -12z m-1410 -32 c3 -6 -1 -7 -9
-4 -18 7 -21 14 -7 14 6 0 13 -4 16 -10z m1280 -50 c3 -5 12 -7 20 -3 8 3 15
0 15 -5 0 -13 -62 -32 -101 -32 -41 0 -88 -20 -94 -40 -9 -27 -30 -31 -66 -13
-24 12 -34 13 -37 5 -2 -7 -11 -12 -20 -12 -12 0 -13 3 -4 12 7 7 12 20 12 31
0 15 6 18 38 15 58 -5 194 23 188 39 -6 15 39 18 49 3z m-435 -51 c0 -5 -4 -9
-10 -9 -5 0 -10 7 -10 16 0 8 5 12 10 9 6 -3 10 -10 10 -16z m810 4 c14 -6 34
-12 44 -14 16 -3 14 -6 -10 -18 -16 -7 -37 -17 -46 -22 -14 -7 -21 -2 -33 21
-26 51 -17 58 45 33z m329 -13 c16 0 17 -6 11 -47 -10 -60 -5 -67 26 -47 15
10 24 26 25 43 0 14 3 20 6 13 8 -21 -5 -58 -32 -91 -22 -25 -24 -33 -14 -49
13 -20 4 -92 -11 -92 -5 0 -10 14 -12 32 -3 30 -4 31 -20 15 -9 -9 -18 -17
-20 -17 -9 0 -6 130 4 180 7 30 11 64 10 75 0 16 0 17 4 3 3 -10 13 -18 23
-18z m-1322 -16 c-7 -7 -37 7 -37 17 0 6 9 5 21 -1 11 -7 19 -14 16 -16z m43
-3 c0 -21 -27 -48 -37 -37 -4 4 -2 11 5 15 7 4 10 15 6 24 -4 12 -1 17 10 17
9 0 16 -8 16 -19z m1190 15 c0 -3 -4 -8 -10 -11 -5 -3 -10 -1 -10 4 0 6 5 11
10 11 6 0 10 -2 10 -4z m-2113 -108 c-3 -8 -6 -5 -6 6 -1 11 2 17 5 13 3 -3 4
-12 1 -19z m163 2 c0 -5 -4 -10 -10 -10 -5 0 -10 5 -10 10 0 6 5 10 10 10 6 0
10 -4 10 -10z m141 -26 c8 -8 23 -14 33 -14 18 0 94 -47 113 -70 7 -8 13 -21
13 -29 0 -11 -3 -11 -15 -1 -12 10 -15 10 -15 0 0 -8 -8 -10 -21 -7 l-21 6 20
-22 c25 -28 42 -61 42 -81 0 -21 -43 -21 -60 -1 -7 8 -17 12 -22 9 -5 -3 -16
2 -24 12 -14 18 -15 16 -12 -18 5 -44 -4 -49 -20 -13 -15 33 -15 100 -1 127 7
12 7 18 1 14 -13 -8 -82 72 -82 96 0 15 5 17 28 12 15 -4 34 -13 43 -20z m782
-16 c-5 -35 -4 -40 10 -35 9 3 19 2 22 -3 4 -6 20 -10 36 -10 31 0 106 -35
149 -69 46 -38 -8 -25 -81 19 -67 39 -99 49 -99 30 0 -5 12 -13 28 -16 28 -7
89 -48 109 -73 6 -9 13 -29 16 -46 3 -16 9 -38 13 -49 6 -15 4 -17 -14 -12
-18 6 -21 4 -15 -11 6 -17 5 -17 -15 0 -13 12 -28 16 -42 12 -12 -4 -27 -1
-35 5 -12 10 -15 9 -15 -3 0 -25 -40 -8 -62 27 -17 27 -19 28 -12 6 4 -14 9
-31 11 -37 8 -20 -25 -15 -36 5 -9 14 -10 13 -11 -10 0 -30 -9 -35 -29 -15
-10 10 -16 8 -31 -10 -10 -13 -21 -23 -25 -23 -3 0 -3 10 0 23 18 61 18 60 1
54 -10 -4 -16 -1 -16 8 0 8 -4 15 -10 15 -5 0 -10 -6 -10 -13 0 -7 -9 -18 -19
-24 -16 -10 -19 -9 -23 12 -8 42 51 120 110 146 52 23 54 37 5 41 l-38 3 42
14 c31 10 46 22 58 47 22 46 34 43 28 -8z m927 36 c0 -3 -5 -14 -11 -26 -9
-16 -7 -24 9 -41 11 -12 25 -38 30 -57 6 -19 11 -29 11 -22 2 21 21 3 21 -19
0 -11 -4 -18 -9 -15 -5 4 -11 -23 -13 -60 -1 -36 0 -68 5 -71 4 -2 7 -9 7 -15
0 -6 -9 -3 -20 7 -11 10 -20 28 -20 39 0 12 -5 28 -10 36 -7 12 -10 8 -10 -14
0 -34 -25 -66 -52 -66 -21 0 -24 29 -5 49 10 11 8 11 -10 2 -13 -6 -23 -16
-23 -20 0 -8 -53 -31 -71 -31 -5 0 -4 12 1 26 15 39 12 47 -15 40 -29 -7 -34
8 -7 23 12 8 13 10 3 11 -8 0 -11 3 -8 7 4 3 0 14 -8 23 -9 10 -13 24 -9 33 7
20 110 60 133 52 20 -6 51 41 51 77 0 14 3 28 7 31 8 8 23 9 23 1z m-1990 -35
c0 -5 -4 -9 -10 -9 -5 0 -10 7 -10 16 0 8 5 12 10 9 6 -3 10 -10 10 -16z m-50
1 c0 -5 -5 -10 -11 -10 -5 0 -7 5 -4 10 3 6 8 10 11 10 2 0 4 -4 4 -10z m1400
-9 c0 -16 -27 -31 -44 -25 -9 3 -16 10 -16 14 0 7 10 11 53 19 4 0 7 -3 7 -8z
m370 -48 c0 -7 -5 -13 -11 -13 -6 0 -9 7 -5 15 3 8 1 15 -5 15 -6 0 -7 5 -3
11 7 12 24 -7 24 -28z m-1476 -14 c29 -34 31 -50 15 -115 -12 -46 -22 -54 -37
-28 -5 9 -13 17 -18 17 -5 1 -8 18 -7 37 4 86 8 120 15 120 3 0 18 -14 32 -31z
m546 12 c0 -10 -45 -41 -60 -41 -22 0 -5 34 20 41 36 10 40 10 40 0z m170 -18
c0 -16 -67 -50 -109 -56 l-44 -6 25 26 c30 30 128 57 128 36z m820 -12 c0 -4
-5 -12 -12 -19 -14 -14 -62 -16 -53 -2 3 6 -1 10 -9 10 -8 0 -17 4 -20 8 -3 5
17 9 44 10 28 0 50 -2 50 -7z m-1295 -41 c10 -11 13 -20 7 -20 -6 0 -16 9 -22
20 -6 11 -9 20 -7 20 2 0 12 -9 22 -20z m-425 -40 c0 -10 25 -68 55 -128 54
-109 65 -142 45 -142 -24 0 -78 29 -93 50 -15 22 -16 22 -19 -11 l-4 -34 -17
38 c-11 23 -16 57 -15 92 3 63 14 72 23 18 4 -21 9 -47 12 -58 5 -17 7 -16 15
10 5 20 3 42 -7 68 -17 43 -21 132 -5 122 6 -3 10 -14 10 -25z m79 -91 c19
-22 31 -43 26 -47 -7 -7 -75 66 -75 81 0 15 16 4 49 -34z m1446 12 c3 -17 2
-39 -4 -49 -9 -16 -6 -23 12 -35 47 -31 107 -100 107 -123 0 -13 -4 -24 -10
-24 -5 0 -10 5 -10 10 0 6 -7 10 -16 10 -9 0 -12 -5 -8 -12 4 -6 9 -23 10 -37
2 -14 10 -48 18 -76 15 -57 35 -62 73 -19 25 27 35 31 27 9 -8 -21 6 -19 32 6
18 16 22 18 27 5 6 -14 -45 -46 -72 -46 -7 0 -22 -9 -34 -21 -38 -36 -55 -41
-66 -21 -6 11 -6 23 -2 28 14 15 -36 85 -55 77 -9 -3 -20 0 -24 7 -11 18 -33
1 -27 -21 3 -10 1 -22 -4 -25 -14 -8 -41 17 -35 33 3 7 1 13 -5 13 -5 0 -12
-7 -15 -15 -4 -8 -12 -15 -19 -15 -6 0 -17 -10 -23 -22 -10 -21 -11 -19 -11
17 l-1 40 -24 -25 c-13 -14 -26 -39 -29 -56 -6 -29 -3 -32 24 -38 36 -7 34
-27 -2 -37 -24 -6 -54 4 -76 27 -15 14 -18 64 -4 64 12 0 33 54 30 76 -2 11 0
25 4 32 14 22 -3 54 -25 49 -11 -3 -29 0 -39 6 -20 12 -25 27 -10 27 5 0 32
15 60 34 28 19 66 39 86 46 30 10 37 9 52 -6 13 -13 18 -14 21 -4 3 7 -4 20
-14 28 -15 12 -16 14 -2 9 21 -7 33 8 47 61 14 49 27 54 36 13z m150 19 c3 -5
1 -10 -4 -10 -6 0 -11 5 -11 10 0 6 2 10 4 10 3 0 8 -4 11 -10z m-1275 -70 c0
-6 -9 -21 -20 -33 -18 -18 -22 -20 -30 -7 -7 11 -4 20 11 33 24 19 39 22 39 7z
m800 -15 c0 -8 7 -15 15 -15 8 0 15 -5 15 -10 0 -18 -53 -32 -138 -36 -46 -2
-86 -5 -90 -7 -4 -3 -28 -8 -54 -11 -40 -6 -50 -4 -67 13 -12 12 -21 25 -21
30 0 17 20 23 35 11 18 -15 83 -19 90 -5 3 6 7 5 11 -2 9 -20 24 -15 18 5 -5
15 -4 15 10 -2 8 -10 22 -16 30 -13 9 4 18 2 20 -2 7 -10 56 -2 56 9 0 5 9 6
20 3 19 -5 25 4 21 35 -1 6 5 12 14 12 8 0 15 -7 15 -15z m855 -15 c-30 -31
-45 -38 -45 -20 0 9 57 50 69 50 3 0 -8 -13 -24 -30z m-1296 -30 c23 -11 40
-26 38 -33 -2 -7 0 -25 5 -42 5 -16 11 -39 13 -50 2 -11 7 -36 10 -55 l7 -35
-64 0 c-58 0 -63 -2 -61 -21 2 -18 -2 -21 -20 -17 -53 13 -97 78 -97 145 0 31
-3 39 -10 28 -5 -8 -7 -36 -4 -62 4 -32 2 -52 -7 -65 -14 -19 -49 -27 -49 -12
0 5 -7 6 -15 3 -12 -5 -14 3 -11 45 2 41 0 49 -11 40 -7 -6 -13 -17 -13 -24 0
-15 -28 -40 -36 -32 -4 3 -3 22 0 41 5 25 16 41 41 56 23 14 35 29 34 43 0 14
-3 17 -6 8 -7 -18 -55 -60 -68 -60 -5 0 1 9 14 20 20 17 22 22 11 29 -8 5 -12
11 -10 13 43 35 78 55 84 50 4 -5 12 0 17 10 9 16 12 16 34 1 14 -9 25 -25 25
-36 0 -17 3 -18 14 -9 11 9 16 9 23 -2 11 -19 53 -41 53 -28 0 6 -14 18 -30
26 -17 9 -28 20 -24 26 3 6 -4 13 -15 16 -20 5 -20 6 -4 18 19 14 55 5 132
-35z m955 20 c17 -5 44 -12 59 -15 37 -8 27 -21 -23 -29 -35 -5 -44 -3 -60 16
-32 39 -27 44 24 28z m208 -147 c0 -10 1 -25 0 -33 0 -8 5 -18 12 -22 11 -6
11 -16 2 -49 -10 -40 -10 -42 22 -68 37 -32 40 -46 11 -54 -15 -4 -22 1 -28
16 -8 20 -9 19 -15 -11 -8 -33 -20 -41 -30 -19 -3 6 -4 3 -1 -8 6 -26 -53
-101 -67 -87 -12 12 -2 32 16 32 16 0 36 43 35 73 -1 19 -3 17 -14 -10 -10
-22 -30 -39 -67 -57 -62 -30 -112 -58 -132 -75 -20 -16 -61 -10 -61 9 0 10 12
16 37 18 29 2 48 14 83 49 51 50 53 66 6 34 -17 -12 -44 -30 -61 -41 -55 -37
-54 -22 2 54 24 32 61 67 86 81 55 31 72 32 45 3 -38 -43 -36 -53 2 -15 21 20
44 37 51 37 6 0 17 14 23 31 14 40 14 39 -4 39 -23 0 -18 18 9 35 16 11 22 22
19 35 -3 11 0 20 6 20 6 0 12 -8 13 -17z m-1013 -15 c10 -28 9 -30 -13 -22
-17 7 -23 44 -6 44 6 0 14 -10 19 -22z m329 -56 c-3 -29 -1 -55 4 -58 4 -3 8
-11 8 -17 0 -7 -4 -6 -10 3 -8 12 -10 11 -10 -7 0 -13 -4 -23 -10 -23 -5 0
-10 -8 -10 -18 0 -10 -6 -24 -12 -30 -10 -10 -7 -24 16 -66 25 -47 27 -56 15
-69 -9 -9 -21 -11 -34 -6 -11 4 -33 8 -49 8 -16 1 -38 9 -48 18 -18 16 -18 16
-12 0 7 -19 -17 -33 -42 -23 -15 6 -15 8 0 31 21 32 20 42 -1 22 -18 -15 -154
-69 -161 -63 -3 3 31 59 60 99 7 9 43 24 81 33 37 10 67 20 67 24 0 11 -85 -7
-121 -26 -54 -27 -29 8 27 38 48 26 97 36 182 37 l43 1 -16 30 c-18 34 -19 65
-4 109 9 27 14 30 26 19 11 -9 14 -26 11 -66z m-1278 -3 c0 -6 -4 -7 -10 -4
-5 3 -10 11 -10 16 0 6 5 7 10 4 6 -3 10 -11 10 -16z m385 -33 c36 -19 80 -50
99 -70 18 -20 38 -36 45 -36 6 0 11 -7 11 -15 0 -17 -16 -20 -25 -5 -7 12 -45
14 -45 3 1 -5 14 -24 31 -43 l30 -35 -37 -3 c-21 -2 -48 2 -61 9 -20 11 -26
11 -34 -1 -7 -12 -19 -4 -59 40 -42 46 -48 50 -35 23 19 -41 19 -79 0 -87 -8
-3 -15 -1 -15 4 0 6 -6 10 -14 10 -20 0 -23 7 -31 74 -6 43 -5 57 4 52 7 -5
11 2 11 18 0 13 3 31 6 40 4 11 1 16 -11 16 -9 0 -15 6 -12 13 5 17 42 15 43
-3 0 -8 -5 -21 -10 -29 -9 -12 -7 -13 6 -9 9 4 23 -1 34 -13 9 -10 19 -17 22
-14 3 2 -6 13 -19 24 -39 31 -16 34 37 5 68 -37 78 -46 63 -55 -8 -4 -4 -11
12 -20 23 -12 23 -11 9 6 -14 17 -13 18 3 12 9 -3 17 -5 17 -3 0 8 -118 94
-138 100 -12 4 -20 12 -17 17 9 13 9 13 80 -25z m825 14 c0 -5 -7 -10 -15 -10
-8 0 -15 5 -15 10 0 6 7 10 15 10 8 0 15 -4 15 -10z m-302 -89 c-44 -42 -73
-50 -111 -30 -19 11 -17 13 33 29 30 10 68 25 85 34 43 23 41 13 -7 -33z
m-398 13 c0 -8 -4 -12 -10 -9 -5 3 -10 10 -10 16 0 5 5 9 10 9 6 0 10 -7 10
-16z m1108 -27 c4 -18 -13 -24 -22 -8 -4 5 -22 5 -43 1 -21 -5 -44 -5 -52 0
-14 8 -13 10 4 11 11 1 25 1 32 0 6 -1 14 3 17 8 11 16 60 7 64 -12z m-1509
-23 c22 -28 28 -50 11 -39 -5 3 -19 19 -30 35 -26 37 -9 40 19 4z m96 -34 c10
-11 15 -23 12 -26 -8 -8 -57 23 -57 36 0 17 26 11 45 -10z m1127 -67 c20 -18
25 -40 6 -23 -7 6 -22 17 -33 25 -14 10 -16 14 -6 15 8 0 23 -7 33 -17z m508
-92 c0 -11 -5 -32 -11 -48 l-12 -28 -8 35 c-4 21 -3 40 3 47 15 19 28 16 28
-6z"/>
<path d="M2720 2846 c0 -2 6 -9 14 -15 10 -9 16 -8 26 4 11 13 8 15 -14 15
-14 0 -26 -2 -26 -4z"/>
<path d="M2445 2610 c3 -5 11 -10 16 -10 6 0 7 5 4 10 -3 6 -11 10 -16 10 -6
0 -7 -4 -4 -10z"/>
<path d="M2745 2420 c3 -5 8 -10 11 -10 2 0 4 5 4 10 0 6 -5 10 -11 10 -5 0
-7 -4 -4 -10z"/>
<path d="M2660 2350 c0 -5 5 -10 10 -10 6 0 10 5 10 10 0 6 -4 10 -10 10 -5 0
-10 -4 -10 -10z"/>
<path d="M3325 2321 c-3 -5 -1 -12 5 -16 5 -3 10 1 10 9 0 18 -6 21 -15 7z"/>
<path d="M1750 2140 c-24 -8 -24 -8 -2 -9 12 -1 25 -1 29 -2 4 0 9 4 11 10 4
12 -2 12 -38 1z"/>
<path d="M1730 2016 c0 -8 5 -18 10 -21 6 -3 10 3 10 14 0 12 -4 21 -10 21 -5
0 -10 -6 -10 -14z"/>
<path d="M2283 2053 c9 -2 23 -2 30 0 6 3 -1 5 -18 5 -16 0 -22 -2 -12 -5z"/>
<path d="M2937 2123 c-5 -26 -4 -26 9 -8 16 22 18 35 5 35 -5 0 -11 -12 -14
-27z"/>
<path d="M2990 2142 c0 -5 7 -16 16 -23 14 -12 16 -11 13 5 -4 20 -29 35 -29
18z"/>
<path d="M2827 1879 c7 -7 15 -10 18 -7 3 3 -2 9 -12 12 -14 6 -15 5 -6 -5z"/>
<path d="M2475 1886 c-25 -10 -27 -13 -11 -19 10 -4 24 -1 33 9 21 21 14 24
-22 10z"/>
<path d="M3260 1855 c0 -8 5 -15 10 -15 6 0 10 7 10 15 0 8 -4 15 -10 15 -5 0
-10 -7 -10 -15z"/>
<path d="M2094 1685 c26 -19 42 -19 26 0 -7 8 -20 15 -29 15 -13 -1 -13 -3 3
-15z"/>
<path d="M2480 1381 c0 -11 5 -23 10 -26 6 -4 10 5 10 19 0 14 -4 26 -10 26
-5 0 -10 -9 -10 -19z"/>
<path d="M3438 1410 c-7 -24 -3 -38 8 -28 3 4 4 17 2 30 l-3 23 -7 -25z"/>
<path d="M1456 1241 c-4 -7 -5 -15 -2 -18 9 -9 19 4 14 18 -4 11 -6 11 -12 0z"/>
<path d="M2507 913 c-4 -3 -7 -13 -7 -22 1 -13 3 -13 11 2 11 19 8 33 -4 20z"/>
<path d="M2486 824 c-9 -23 -7 -44 3 -44 5 0 11 8 15 18 3 9 9 23 12 30 3 6
-1 12 -9 12 -8 0 -18 -7 -21 -16z"/>
<path d="M3407 883 c-11 -10 -8 -61 3 -68 6 -4 10 10 10 34 0 42 -2 46 -13 34z"/>
<path d="M2115 570 c3 -5 11 -10 16 -10 6 0 7 5 4 10 -3 6 -11 10 -16 10 -6 0
-7 -4 -4 -10z"/>
<path d="M1840 310 c0 -5 5 -10 11 -10 5 0 7 5 4 10 -3 6 -8 10 -11 10 -2 0
-4 -4 -4 -10z"/>
<path d="M1330 3620 c12 -22 25 -26 35 -11 3 6 -3 15 -14 20 -28 16 -33 14
-21 -9z"/>
<path d="M2695 3610 c-3 -5 -1 -10 4 -10 6 0 11 5 11 10 0 6 -2 10 -4 10 -3 0
-8 -4 -11 -10z"/>
<path d="M2473 3533 c-26 -5 -31 -23 -8 -23 30 0 90 -38 134 -84 46 -50 68
-55 63 -15 -5 28 -21 51 -32 44 -12 -7 -99 44 -113 66 -7 11 -14 18 -17 18 -3
-1 -15 -4 -27 -6z"/>
<path d="M2425 3520 c-3 -5 -1 -10 4 -10 6 0 11 5 11 10 0 6 -2 10 -4 10 -3 0
-8 -4 -11 -10z"/>
<path d="M3675 3480 c17 -11 35 -20 40 -20 17 1 -36 40 -54 40 -10 0 -6 -7 14
-20z"/>
<path d="M2943 3463 c-13 -2 -23 -8 -23 -13 0 -5 -6 -7 -13 -4 -7 2 -22 -5
-32 -16 -22 -25 -27 -80 -8 -87 17 -7 16 -21 -2 -40 -22 -21 -14 -25 24 -12
36 13 63 6 55 -14 -3 -9 3 -17 18 -20 30 -8 49 11 25 24 -9 6 -15 14 -12 20 4
5 -1 9 -9 9 -9 0 -16 4 -16 9 0 17 20 23 34 11 11 -8 19 -4 36 20 21 30 13 43
-10 15 -7 -8 -20 -15 -28 -15 -12 0 -13 3 -4 12 19 19 14 30 -10 22 -21 -6
-21 -5 -9 10 22 26 78 46 132 46 26 0 50 4 53 9 9 15 -142 25 -201 14z"/>
<path d="M3197 3450 c-43 -13 -92 -55 -115 -98 l-21 -40 44 42 c23 23 64 53
89 66 62 34 64 48 3 30z"/>
<path d="M2206 3424 c-5 -14 -4 -15 9 -4 17 14 19 20 6 20 -5 0 -12 -7 -15
-16z"/>
<path d="M1465 3418 c-47 -25 -56 -62 -29 -117 l16 -32 26 34 c46 59 71 72
132 69 30 -1 69 -7 87 -13 l33 -10 -16 -31 -16 -30 23 16 c14 9 43 16 71 16
27 0 48 3 48 6 0 13 -36 33 -59 34 -14 0 -38 4 -55 10 -17 5 -71 19 -121 30
-49 11 -97 23 -105 25 -8 2 -24 -1 -35 -7z"/>
<path d="M2680 3400 c0 -5 7 -7 15 -4 8 4 15 8 15 10 0 2 -7 4 -15 4 -8 0 -15
-4 -15 -10z"/>
<path d="M3330 3390 c8 -5 24 -10 34 -10 11 0 30 -10 43 -22 28 -26 38 -21 15
8 -11 14 -34 24 -62 28 -32 4 -41 3 -30 -4z"/>
<path d="M3467 3392 c-3 -4 3 -13 14 -20 10 -7 19 -8 19 -3 0 13 -28 33 -33
23z"/>
<path d="M2810 3302 c0 -6 -6 -9 -14 -6 -8 3 -26 -2 -41 -12 l-27 -18 22 -8
c13 -5 27 -4 34 1 6 5 21 11 33 13 20 3 20 5 7 22 -8 11 -14 15 -14 8z"/>
<path d="M3158 3293 c7 -3 16 -2 19 1 4 3 -2 6 -13 5 -11 0 -14 -3 -6 -6z"/>
<path d="M3231 3266 c2 -2 15 -9 29 -15 24 -11 24 -11 6 3 -16 13 -49 24 -35
12z"/>
<path d="M2187 3253 c-4 -3 -7 -11 -7 -17 0 -6 5 -5 12 2 6 6 9 14 7 17 -3 3
-9 2 -12 -2z"/>
<path d="M3325 3197 c21 -25 42 -44 47 -41 18 11 2 35 -41 61 l-45 26 39 -46z"/>
<path d="M1460 3100 c-6 -12 -9 -33 -7 -48 4 -24 4 -24 6 6 0 19 7 35 16 38
17 7 21 24 5 24 -5 0 -14 -9 -20 -20z"/>
<path d="M3140 2925 c0 -8 7 -15 16 -15 14 0 14 3 4 15 -7 8 -14 15 -16 15 -2
0 -4 -7 -4 -15z"/>
<path d="M1520 2915 c-17 -20 9 -21 36 0 19 14 19 14 -2 15 -12 0 -27 -7 -34
-15z"/>
<path d="M3400 2841 c25 -22 46 -38 48 -36 8 7 -51 63 -71 69 -14 3 -7 -7 23
-33z"/>
<path d="M1525 2770 c3 -5 8 -10 11 -10 2 0 4 5 4 10 0 6 -5 10 -11 10 -5 0
-7 -4 -4 -10z"/>
<path d="M3375 2749 c-10 -15 3 -25 16 -12 7 7 7 13 1 17 -6 3 -14 1 -17 -5z"/>
<path d="M3751 2603 c-11 -15 -26 -34 -31 -40 -7 -9 -8 -13 0 -13 5 0 10 -7
10 -15 0 -8 -5 -15 -11 -15 -5 0 -7 -4 -4 -10 12 -19 21 -10 34 38 8 26 18 53
24 60 5 7 7 15 5 18 -3 3 -15 -8 -27 -23z"/>
<path d="M3590 2480 c13 -23 20 -26 20 -6 0 8 -7 16 -15 20 -13 4 -14 2 -5
-14z"/>
<path d="M3662 2493 c-12 -2 -30 -16 -39 -30 -16 -24 -16 -26 1 -39 13 -9 19
-27 19 -65 1 -58 15 -38 16 23 1 20 7 41 15 45 15 9 33 74 19 72 -4 -1 -18 -4
-31 -6z"/>
<path d="M3741 1593 c-10 -26 -10 -27 4 -9 8 11 15 23 15 28 0 15 -7 8 -19
-19z"/>
<path d="M3751 914 c0 -11 3 -14 6 -6 3 7 2 16 -1 19 -3 4 -6 -2 -5 -13z"/>
</g>
</svg>
